<svg xmlns="http://www.w3.org/2000/svg" fill="none" viewBox="0 0 1073 1057">
<path fill="#fff" d="M977.47 228.467C887.87 102.867 754.267 23 601.333 3.533 581.733 1.133 506.667-.2 490 1.8c-76.133 8.533-133.733 25.067-194.4 55.333-25.2 12.667-40.8 21.6-62.933 36.667C156.8 145.267 90.667 221.933 52 303.667 25.733 359 10.133 413 3.333 471.667c-4.266 37.2-3.733 113.866.934 116.8.933.666 4.133 1.2 7.2 1.2h5.466l.667-14c.8-15.467 3.067-20.8 10.133-25.067 5.467-3.2 15.467-2.933 20.934.4C56 555.533 58 559.8 58 570.6c0 5.333.133 9.733.4 9.733 1.2 0 18.933-9.6 30.267-16.4 58.666-35.2 139.333-100.8 191.466-155.733 58.4-61.467 97.334-113.333 140-186.133 14.8-25.2 44-82.4 47.734-93.6.8-2.534 1.466-8.667 1.466-13.734 0-7.333.534-10.133 2.8-13.333 5.467-7.6 15.467-9.333 23.6-4 5.2 3.467 6.934 8.533 6.934 20.933v11.334h46.266l4.667-5.2c4-4.134 4.933-6.534 5.733-12.934 1.067-8.8 4-13.066 11.2-16.133 7.867-3.333 17.734.667 20.934 8.533 1.2 2.667 1.866 9.334 1.866 17.2 0 14.267 2.8 29.467 13.334 73.334 23.2 96.266 66.933 213.6 108.266 290.533 19.734 36.8 44.134 74.533 63.2 97.467C805.067 615.133 844.667 649 855.2 648.6c10.53-.4 25.87-8.533 39.33-21.067 24.67-22.8 45.87-68.666 52.14-112.533 1.6-11.2 2.8-13.333 8.13-13.333 4.27 0 7.87 4.133 7.87 8.933 0 2.933.4 3.067 11.33 3.067 9.73 0 11.47-.4 12.13-2.4 1.87-6.134 4.14-8.934 7.6-9.334 6-.666 7.2 1.467 8.27 14.8 2.27 31.2 16.53 123.334 24.8 160.4 4.53 20.534 10.53 41.867 11.73 41.867.4 0 2.54-4.933 4.54-11.067 13.2-38.266 22.53-80 27.86-124.266 2.54-22 2.14-91.2-.66-113.334-6.27-48-17.47-91.733-34.4-134.266-13.34-33.6-37.74-78.667-58.4-107.6Z"/>
<path fill="#fff" d="M513.2 195.667c9.333-14.267 18.8-30.4 18.8-32.134 0-.266-6.533-.533-14.667-.533h-14.666v48.667l10.533-16Zm44.667 38.666c.4-1.066.4-17.6-.134-36.666-.4-19.067-1.2-34.667-1.6-34.667-.533 0-3.2 4-6 8.933-8.933 15.6-22.266 36.534-31.733 49.867-4.933 7.067-9.067 13.2-9.067 13.733 0 .4 10.8.8 23.867.8 20 0 24-.266 24.667-2Zm-92.134 26.4C467.733 257 468 252.067 468 217c0-21.6-.533-39.333-1.2-39.333-3.2 0-4.267 12.533-3.867 49.333l.004.39c.396 36.683.404 37.462 2.796 33.343ZM446 293l9.6-14.667-1.6-76.666-4.4 8.4-4.267 8.4.267 37.333.4 37.2Zm158.533-32-4.266-14.533c-2.267-8-4.534-14.8-4.934-15.2-.4-.4-.533 96.666-.4 215.866l.4 216.534 5.067.4 4.933.4-.8-403.467Zm-178.4 61.733c.134.267 3.067-3.6 6.4-8.666l6.134-9.067-1.067-36.133-.933-36.134-6.267 10.8-6.4 10.8.8 34c.533 18.667 1.067 34.267 1.333 34.4Zm-8.4 12.934-.266-34c-.134-18.667-.534-34.134-.8-34.4-.134-.134-2.267 2.533-4.534 6.133L408 279.933l.267 34.267.4 34.4 4.533-6.533 4.533-6.4ZM558 289.8l-10.933-15.467-16.267-.4c-15.467-.4-16.267-.266-19.333 2.8-1.734 1.867-4.534 5.734-6 8.667-2.667 5.067-2.8 7.733-2.8 36.267v30.666l27.733-.266 27.6-.4V289.8Zm67.333 35.2-5.466-17.333a1799.943 1799.943 0 0 0-3.423-11.035c-1.485-4.749-2.607-8.34-2.844-9.365-.533-1.6-.8 82.666-.533 187.333.266 104.667.533 190.4.666 190.533.134.134 2.8.667 6 1.2l5.6.934V325ZM390 371.533l5.333-7.333 5.334-7.2-1.334-64.133-4.933 7.333c-2.667 4.133-5.2 8.933-5.6 10.8-.4 1.867-.267 16.133.267 31.867l.933 28.666ZM458.667 648.6c4 .4 7.466.667 7.6.533.266-.266.266-79.066.133-175.2l-.4-174.8L458.267 311l-7.6 11.733.666 324.934 7.334.933ZM364.4 401.533c3.067-3.333 8.133-9.333 11.333-13.466l5.6-7.334-.266-30.533-.4-30.533-6.534 8.666c-3.733 4.8-8.666 11.067-11.066 13.867l-4.4 5.333v30l.133 30.134 5.6-6.134Zm78.933 244.8.267-156.4c.133-96.933-.267-156.266-1.067-156.266-.666 0-1.2.533-1.2 1.2 0 .666-2.533 4.666-5.733 8.933l-5.733 7.867v146.266c.133 80.4.4 146.534.8 146.934.4.4 3.466.8 6.666 1.066l6 .4Zm203.334-263.066-6.134-17.867c-.73-2.049-1.441-4.056-2.116-5.957-2.529-7.132-4.529-12.773-4.95-13.51-.534-.933-.667 71.067-.4 160 .266 88.934.666 161.867.8 161.867 0 .133 2.933.533 6.533.8l6.267.8V383.267Zm-308.267 45.6c.533.4 3.6-2.267 6.667-5.867l5.6-6.533-.267-29.067-.4-29.067-6.267 7.867-6.4 7.867v27.066c0 14.934.534 27.334 1.067 27.734Zm82.933 215.866V504.467c0-77.067-.133-140.134-.4-140.134-.266 0-3.466 4-12 15.6-1.2 1.6-1.466 261.734-.266 262.8.266.4 3.2.934 6.666 1.2l6 .8ZM310.667 459.667l10-10 10-10.134-.267-28.4-.4-28.4-9.6 11.334-9.733 11.466v54.134Zm89.333 182V516.333C400 447.4 399.733 391 399.467 391c-.267 0-2.8 3.067-5.6 6.8-3.067 4.267-4.934 8.267-5.067 10.933 0 .958.021 10.033.055 24.587.051 21.904.132 56.217.212 93.947l.266 114.4H400ZM553.467 412.2c-2-3.333-5.467-7.333-7.467-8.933-3.2-2.534-5.333-2.934-16-2.934-14.4 0-17.067 1.334-23.333 12.534l-4 6.8v74h54.666V418.2l-3.866-6Zm113.866 141.467c0-112.534-.133-118.4-2.533-126-1.467-4.4-4.267-11.867-6.267-16.667l-3.733-8.667-.133 133.6c0 73.467.4 133.867 1.066 134.134.534.4 3.334.933 6.267 1.066l5.333.534v-118ZM296.4 473c3.067-3.467 5.867-7.067 6.267-7.867.4-.8.4-12.8 0-26.533L302 413.533 295.733 421c-5.333 6.267-6.266 8.267-5.733 11.733.267 2.4.533 13.867.533 25.467l.134 21.2 5.733-6.4Zm84.933 166V526.333c0-62-.4-112.666-.933-112.533-.667 0-5.733 5.6-11.333 12.4l-10.4 12.533v198.534l8.133.933c4.533.4 9.733.8 11.333.8h3.2ZM264.667 502.733l9.066-8.533 8.934-8.533-.267-25.334-.4-25.466-19.2 19.466 1.867 48.4Zm86 133.334v-94.534c0-52-.134-94.533-.267-94.4-.22 0-2.246 2.259-4.964 5.29l-1.836 2.044-6.267 7.333.267 85.867c.267 47.2.667 86 1.067 86.4.4.266 3.2.933 6.4 1.333l5.6.667Zm336-162.667-5.467-12.267c-3.067-6.666-5.733-12.4-6-12.666-.267-.267-.533 49.866-.533 111.6 0 61.6.4 112.4 1.066 112.666.534.4 3.334.934 6.134 1.067l5.2.533L686.8 573.8l-.133-100.4Zm-450 50.8c.666.667 18.933-14.8 19.6-16.533.266-.8.133-11.6-.267-24.267l-.667-22.8-19.866 18 .4 22.533c.133 12.4.533 22.8.8 23.067Zm94 109.867V551.8c0-48.133-.534-82.133-1.2-82.133-.667 0-5.2 4.266-10 9.466l-8.8 9.467v143.733h3.866c2 0 6.534.4 10 .8l6.134.934ZM228 529.933c.4-.266.4-10.133.267-22-.267-11.866-.667-21.733-.8-21.866-.134-.267-4.267 3.066-9.2 7.333l-8.934 7.6v21.867c0 20.533.134 21.733 2.4 20l.387-.301c1.544-1.2 5.267-4.094 8.547-6.766a446.797 446.797 0 0 0 5.375-4.305c1.065-.863 1.782-1.445 1.958-1.562Zm479.467 147.334c.133-.134.533-36.934.8-81.867l.666-81.6-7.2-13.067-7.066-13.066.4 94 .266 93.866 5.867 1.067c3.333.533 6.133.933 6.267.667Zm-404.8-45.867v-67.6c0-37.067-.134-67.467-.267-67.467-.267 0-3.067 2.267-6.133 5.067l-5.867 4.933.267 61.334c0 33.6.266 61.333.4 61.6.266.133 2.933.666 6 1.2l5.6.933Zm-102.902-82.753c2.176-3.095 1.939-7.886 1.702-20.447-.134-10.533-.4-19.333-.534-19.467-.266-.133-4.4 2.8-9.333 6.667l-8.933 6.8V537c.133 10.8.533 15.333 2.133 17.333 1.867 2.534 2 2.534 6.267.267 4.564-2.499 7.202-3.825 8.698-5.953Zm82.902 80.086V571.8c0-31.2-.4-56.8-.934-56.667-.666 0-4.8 3.067-9.333 6.934L264.133 529v48.933L264 627h3.2c1.733 0 5.867.4 9.333.8l6.134.933ZM724.533 679.8c1.867.8 2.134-5.867 2.134-68.267l-.134-69.2-5.2-8.666L716 525v154h3.2c1.733 0 4.133.4 5.333.8ZM175.467 546.333c-.4-1.2-.8-5.466-.8-9.466 0-4-.4-7.2-.934-7.2-.666 0-2.533 1.333-4.4 2.8-7.2 5.733-27.733 20.933-35.6 26.266l-8.4 5.734V579c0 8.133.4 14.667.8 14.667.534 0 4.934-2.134 9.867-4.934l9.067-4.8.533-11.466c.267-9.467.933-12.267 3.6-16 4.533-6.267 13.333-10 21.2-8.8 5.2.8 5.867.666 5.067-1.334ZM962.4 555c5.6 0 8.4-3.867 14.27-20.4l1.86-4.933h-19.86V555h3.73ZM256 625.667V581c0-24.533-.4-44.667-.933-44.667-.667 0-3.2 2-5.867 4.4-2.533 2.267-6.8 6-9.467 8.267l-4.666 4 .666 34.933.534 35.067 4.266.533c1.126.199 2.779.431 4.549.679 1.794.251 3.708.52 5.318.788l5.6.667ZM985.2 555c2.13 0 2.67-1.2 3.07-8.4.53-9.067.26-10.667-1.07-6.8-.53 1.333-1.73 4.533-2.67 7.067C982 553 982.27 555 985.2 555Zm-431.333 4.8c-2-4.267-5.467-9.2-7.6-10.933-3.467-2.934-5.067-3.2-16.534-3.2-12.533 0-12.666 0-16.666 4.266-2.267 2.4-5.6 7.334-7.2 11.067-3.067 6.533-3.2 7.333-3.2 49.6 0 35.333.266 43.067 1.866 43.067.934 0 13.067 1.2 26.8 2.666 13.734 1.6 25.2 2.534 25.6 2.267.267-.267.534-20.933.534-45.867l.133-45.333-3.733-7.6ZM228 621.667V589c0-18-.133-32.667-.267-32.667-.266.134-4.666 3.2-10 7.067l-9.6 6.933v24.8l-.133 24.8 5.067.934c2.666.4 7.2.8 10 .8H228Zm516.667-51.2-4.4-7.067c-2.534-3.867-4.667-7.067-5.067-7.067-.267 0-.4 28-.267 62.267l.4 62.4 4.267.4 4.4.4.267-55.6.4-55.733Zm-627.334 26.8V583.4c0-7.467-.133-13.733-.266-13.733-.196 0-.964.573-1.938 1.299-.355.264-.737.549-1.129.834-1.449 1.185-5.76 3.802-9.463 6.05l-.137.083-7.067 4V600.2l4.8.933c3.2.534 6.267.134 10-1.466l5.2-2.4ZM980 599c3.2-3.2 6.67-14.8 6.67-22.133 0-5.067-.27-5.6-3.6-6.134-2.14-.266-4.67-.266-5.74 0-1.86.267-18.13 28-17.06 28.934.26.133 4.26.666 8.8 1.066 7.06.534 8.93.267 10.93-1.733Zm-21.47-22.667c.67 0 1.47-1.2 1.87-2.666.8-3.2-1.07-3.6-2.27-.534-1.06 2.8-1.06 3.2.4 3.2Zm-38.4 89.467c11.2-1.867 21.07-6.4 22-10.133.27-1.467.4-19.467.27-40-.4-31.6-.67-36.8-2.13-33.467-16.67 37.6-33.87 58.667-59.2 72.267l-8 4.266 8.4 2.8c13.73 4.534 27.86 6.134 38.66 4.267ZM761.333 639c0-42.267-.133-45.733-2.533-50.533-1.467-2.667-3.6-5.734-4.667-6.667-2-1.6-2.133 3.067-2.133 49.6v51.333l3.067.8c1.654.439 2.872.887 3.769.529 2.646-1.055 2.497-9.116 2.497-45.062ZM85.067 598.867c4.266.133 4.266 0 4.266-5.867 0-3.333-.133-6-.4-6-.125 0-3.45 2.014-7.516 4.478l-.75.455-8 5.067 4 .8c2.266.533 6 .933 8.4 1.067ZM780 687.133v-37.066L779.867 613l-5.2-6-5.334-6 .4 42.667.267 42.666 5.067.4 4.933.4Zm249.07 40.8c-3.6-9.466-10.8-36-14.4-52.933-1.6-7.733-4.94-25.733-7.34-40l-4.4-26-.26 117.867 13.2 4.133c7.2 2.133 13.73 4 14.53 4 .8 0 .27-2.933-1.33-7.067Zm-41.07-71.6v-20c0-11.066-.4-20-.93-19.866-.67 0-3.07 4.133-5.47 9.2-2.4 5.2-8 14.133-12.4 20l-7.87 10.666H988ZM959.87 635c1.33 0 10.8-14.4 10.8-16.267 0-.533-2.67-1.066-6-1.066h-6v8.666c0 4.8.53 8.667 1.2 8.667Zm-162.537 54c.8-.533 1.334-11.2 1.334-28.8v-28l-5.334-5.6-5.2-5.6-.133 33.6v33.467l4 .933c2.133.533 4.533.533 5.333 0ZM816 647.533l-4.4-4.266c-2.4-2.4-4.8-4.267-5.2-4.267-.933 0-.667 50.133.4 51.2.4.4 2.667 1.2 4.933 1.6l4.267.8v-45.067Zm16.847 47.265c1.872-1.098 1.82-5.48 1.82-17.531v-17.734l-5.334-3.066-5.333-2.934V673.4c0 19.6 0 20 3.067 20.8 2.88.745 4.668 1.249 5.78.598Zm20.486 2.869v-27.334L848 667.267c-2.356-1.332-3.728-2.408-4.51-2.079-1.253.527-.987 4.664-.823 17.145.133 14.134.666 15.334 7.066 15.334h3.6ZM872 689.8c0-10.533-.13-10.8-4-12.8-6.533-3.333-6.8-2.933-6.4 10.267l.4 12.4 5.07.4 4.93.4V689.8Zm116 13.333c0-19.466-.13-20-3.47-24-3.2-3.866-4.13-4.133-11.73-4.133-6.93 0-8.8.533-11.2 3.067-2.67 2.933-2.93 4.4-2.93 21.066v18l12.4 2.934c8.813 2.156 13.072 3.648 15.116 2.139 2.254-1.663 1.814-6.976 1.814-19.073Zm-557.333-9.466c-39.734-3.2-141.867-10.134-187.334-12.667-6.962-.407-13.517-.794-18.993-1.117-8.893-.526-14.943-.883-15.273-.883-.667 0-1.067 41.333-1.067 91.867v92.003l44.4.4c48.8.53 50.8.8 69.467 9.73 26.933 12.8 48.266 38.67 54.8 66.27l2.4 10 9.466 1.6c12.4 2 25.867 6.8 35.467 12.66l7.867 4.67 3.333-2.67c3.067-2.4 6.8-2.53 127.333-2.53h124.134l1.466 3.2c1.2 2.53.934 3.87-.8 6.67l-2.266 3.46h-121.2c-66.667 0-121.2.54-121.2 1.07 0 .67 1.333 2.27 2.8 3.73 1.6 1.34 4.666 5.07 6.8 8.14l3.866 5.73h334.934l10.133-5.6c18.667-10.13 50.667-32.53 76.8-53.6 18.53-15.07 24.4-20.27 41.87-37.33l15.2-14.8-150.137-.4c-82.666-.14-150.266-.8-150.266-1.34 0-2.13 9.2-16.4 18.8-29.2 13.066-17.33 40-44.93 55.066-56.263 22.534-17.2 52.267-30.4 80.134-35.6 8.933-1.734 23.6-2.534 56.666-3.2 47.737-.934 50.937-1.334 72.937-9.6 9.554-3.512 13.054-4.723 12.954-5.409-.063-.435-1.569-.66-3.894-1.125-16.26-3.2-147.597-18.133-208.663-23.866-9.844-.918-22.244-2.096-32.925-3.111-6.391-.608-12.166-1.156-16.409-1.556-42.4-4-73.466-6.267-74.4-5.333-.533.533-.933 40-.8 87.733 0 68.27.534 89.47 2 98.93l1.867 12 28.4-.53 28.267-.4V943H406.533l.8-36.67h26.934c14.8 0 27.2-.26 27.6-.66.266-.4 1.6-6.4 2.8-13.34 1.866-10.53 2.266-28.13 2.933-104.397.667-89.733.667-91.6-1.867-91.6-1.333 0-17.2-1.2-35.066-2.666ZM937.47 713c1.46.533 3.06.667 3.33.267.4-.267.4-8.134.27-17.2v-.001c-.4-16.666-.4-16.666-3.34-15.599-2.93 1.066-3.06 1.733-3.06 16.4 0 14.266.13 15.333 2.8 16.133Zm-46.8-8.667v-21.066L880 680.6v10.533c0 7.334.53 10.8 1.73 11.067.8.4 3.2.933 5.34 1.333l3.6.8Zm31.6 5.867c5.06 1.333 5.86-.8 5.46-14.933-.26-11.334-.53-12.267-3.06-12.134-5.6.134-6 .934-6 13.867 0 12.267 0 12.4 3.6 13.2Zm-11.6-2.133v-23.734h-12V695c0 5.867.4 10.667 1.06 10.667.54 0 3.2.533 6 1.2l4.94 1.2Z"/>
<path fill="#fff" d="M537.333 719.667c8.267-8 14-15.067 13.2-16-1.2-1.067-43.866-2.267-43.866-1.067 0 .533 5.066 6.533 11.333 13.067l11.2 12 8.133-8Zm-421.866 76.4c-5.467-28-20.134-54.267-42.534-75.334-7.81-7.376-11.73-11.582-13.689-10.81-2.255.888-1.911 8.372-1.911 25.21v26.934l7.334 13.866C79.467 803.4 115.2 860.2 116.8 858.6c1.6-1.47.4-53.333-1.333-62.533Zm403.2-55.734c0-.4-3.867-4.666-8.534-9.733-4.533-4.933-8.8-8.933-9.333-8.933-.4 0-.8 8.533-.8 18.933v18.933l9.333-9.2c5.2-5.066 9.334-9.6 9.334-10Zm40.666 13.467c.4-2.667.534-10.933.4-18.533-.133-7.467-.666-13.6-1.2-13.6-.4 0-4.533 3.866-9.2 8.666-4.331 4.576-6.764 6.555-6.904 8.685-.165 2.524 2.895 5.26 9.838 12.782l6.266 6.8.8-4.8Zm-10 20c0-.8-4-5.733-8.933-11.333-5.067-5.467-9.333-9.867-9.733-10-.934-.134-4.8 3.466-14.667 13.6L507.467 775H528.4c12.133 0 20.933-.533 20.933-1.2Zm-9.6 29.733c5.334-5.733 9.6-10.8 9.6-11.466 0-.534-8.933-1.067-20-1.067-10.933 0-20 .4-20 1.067 0 .533 4.667 5.733 10.4 11.333l10.534 10.4 9.466-10.267Zm-22.4 21.334c0-.667-3.466-4.667-7.733-8.934-4.267-4.133-8.133-7.6-8.667-7.6-.533 0-.933 7.734-.933 17.334 0 9.603.533 17.333 1.2 17.333 1.467 0 16.133-16.533 16.133-18.133Zm41.6 18.133c.534 0 1.067-4.93.934-11.07 0-5.997-.534-13.73-.934-17.197L558 808.6l-4.8 3.867c-2.667 2.133-6.533 6-8.533 8.666l-3.6 4.8 8.4 8.537c4.666 4.66 8.933 8.53 9.466 8.53Zm-8.266 17.6c0-.53-4.534-5.87-10.134-12-5.6-6-10.533-10.93-10.933-10.93-1.067 0-21.6 22.13-21.6 23.2 0 .4 9.6.8 21.333.8 11.734 0 21.334-.4 21.334-1.07Zm-1.2 38.93c1.2-3.73 2.666-9.33 3.2-12.4l.933-5.46h-47.333l.933 4.93c.4 2.8 1.867 8.4 3.067 12.4l2.4 7.33h34.666l2.134-6.8Zm182.266 122.94c14.8-5.74 29.6-12.54 29.6-13.47 0-.4-66.933-.67-148.666-.67H464l3.067 4.94c1.733 2.8 3.866 7.06 4.8 9.33l1.733 4.4h246.533l11.6-4.53Zm-134.266 31.86c21.333-2.13 47.733-6.66 59.866-10.53 5.334-1.6-1.866-1.87-69.066-2.27-41.2-.26-74.934-.4-74.934-.26 0 .19 1.148 1.75 2.76 3.93.585.8 1.232 1.68 1.907 2.6 2.533 3.33 4.667 6.67 4.667 7.33 0 2 50.8 1.34 74.8-.8Z"/>
</svg>
